<?xml version="1.0" encoding="UTF-8"?>
<svg width="700pt" height="700pt" version="1.1" viewBox="0 0 700 700" xmlns="http://www.w3.org/2000/svg">
 <g fill-rule="evenodd">
  <path d="m585.64 150.01c-49.605 49.605-166.04 166.02-194.44 194.32-6.1367 6.1133-13.441 10.941-21.281 14.094-22.773 9.4492-78.328 31.242-94.664 32.34-9.7305 0.65234-19.273-2.9414-26.18-9.8477s-10.5-16.449-9.8477-26.18c1.0977-16.332 22.891-71.844 32.176-94.523 3.2422-8.0508 8.0742-15.352 14.211-21.465l194.37-194.39c9.4023-9.4023 22.191-14.699 35.488-14.699 13.301 0 26.086 5.2969 35.488 14.699l34.672 34.672c9.4023 9.4023 14.699 22.191 14.699 35.488 0 13.301-5.2969 26.086-14.699 35.488zm-311.34 205.68c15.961-2.0078 62.602-21.465 82.203-29.609 0.070312-0.023438 0.14062-0.046876 0.1875-0.070313 3.6641-1.4688 6.9766-3.6641 9.7539-6.4414l0.023437-0.023438c28.441-28.305 144.83-144.69 194.41-194.3 2.8477-2.8477 4.457-6.6953 4.457-10.734 0-4.0352-1.6094-7.8867-4.457-10.734l-34.672-34.672c-2.8477-2.8477-6.6953-4.457-10.734-4.457-4.0352 0-7.8867 1.6094-10.734 4.457l-194.39 194.39c-2.8008 2.7773-4.9922 6.1133-6.4648 9.7773l-0.046875 0.09375c-8.0508 19.648-27.535 66.336-29.539 82.32z"/>
  <path d="m539.42 171.48c6.8125 6.8359 6.8125 17.922 0 24.758-6.8359 6.8359-17.922 6.8359-24.758 0l-80.898-80.898c-6.8359-6.8359-6.8359-17.922 0-24.758 6.8359-6.8125 17.922-6.8125 24.758 0z"/>
  <path d="m396.6 314.3c6.8359 6.8125 6.8359 17.922 0 24.734-6.8125 6.8359-17.922 6.8359-24.734 0l-80.898-80.898c-6.8359-6.8125-6.8359-17.922 0-24.734 6.8125-6.8359 17.922-6.8359 24.734 0z"/>
  <path d="m268.33 75.832c9.6602 0 17.5 7.8398 17.5 17.5 0 9.6602-7.8398 17.5-17.5 17.5h-81.668c-29.004 0-52.5 23.496-52.5 52.5v280c0 13.93 5.5312 27.277 15.375 37.125 9.8477 9.8477 23.191 15.375 37.125 15.375h303.33c13.93 0 27.277-5.5312 37.125-15.375 9.8477-9.8477 15.375-23.191 15.375-37.125v-81.668c0-9.6602 7.8398-17.5 17.5-17.5s17.5 7.8398 17.5 17.5v81.668c0 23.215-9.2148 45.453-25.621 61.879-16.426 16.402-38.664 25.621-61.879 25.621h-303.33c-23.215 0-45.453-9.2148-61.879-25.621-16.402-16.426-25.621-38.664-25.621-61.879v-280c0-48.324 39.176-87.5 87.5-87.5z"/>
 </g>
</svg>
